# xmcd CD database file generated by OrangeCD 4.3
#
# Track frame offsets:
#	150
#	20063
#	41269
#	57920
#	80538
#	119445
#	142571
#	154600
#	174681
#	188354
#	220747
#	249406
#
# Disc length: 3576 seconds
#
# Revision: 0
# Processed by: cddbd v1.4PL0 Copyright (c) Steve Scherf et al.
# Submitted via: OrangeCD 4.3
#
DISCID=920df60c
DTITLE=B. B. King and Eric Clapton - Riding with the King
DYEAR=1900
DGENRE=Blues
TTITLE0=Riding With The King
TTITLE1=Ten Long Years
TTITLE2=Key To The Highway
TTITLE3=Marry You
TTITLE4=Three O´clock Blues
TTITLE5=Help The Poor
TTITLE6=I Wanna Be
TTITLE7=Worried Life Blues
TTITLE8=Days Of Old
TTITLE9=When My Heart Beats Like A Hammer
TTITLE10=Hold On I´m Coming
TTITLE11=Come Rain Or Comic Shine
EXTD=
EXTT0=
EXTT1=
EXTT2=
EXTT3=
EXTT4=
EXTT5=
EXTT6=
EXTT7=
EXTT8=
EXTT9=
EXTT10=
EXTT11=
PLAYORDER=
